<svg xmlns="http://www.w3.org/2000/svg"  viewBox="0 0 50 50" width="50px" height="50px"><path d="M 8 4 C 5.800781 4 4 5.800781 4 8 L 4 42 C 4 44.199219 5.800781 46 8 46 L 42 46 C 44.199219 46 46 44.199219 46 42 L 46 8 C 46 5.800781 44.199219 4 42 4 Z M 8 6 L 24 6 L 24 9.585938 L 12.585938 21 L 24 21 L 24 30 L 32.585938 30 L 24 38.585938 L 24 44 L 8 44 C 6.882813 44 6 43.117188 6 42 L 6 8 C 6 6.882813 6.882813 6 8 6 Z M 26 6 L 42 6 C 43.117188 6 44 6.882813 44 8 L 44 42 C 44 43.117188 43.117188 44 42 44 L 26 44 L 26 39.414063 L 37.414063 28 L 26 28 L 26 19 L 17.414063 19 L 26 10.414063 Z"/></svg>